<?xml version="1.0" standalone="no"?>
<!DOCTYPE svg PUBLIC "-//W3C//DTD SVG 1.1//EN" "http://www.w3.org/Graphics/SVG/1.1/DTD/svg11.dtd" >
<svg xmlns="http://www.w3.org/2000/svg">
<metadata></metadata>
<defs>
<font id="proxima_nova_cn_ltlight" horiz-adv-x="446" >
<font-face units-per-em="2048" ascent="1618" descent="-430" />
<missing-glyph horiz-adv-x="500" />
<glyph horiz-adv-x="0" />
<glyph horiz-adv-x="0" />
<glyph horiz-adv-x="682" />
<glyph unicode="&#xd;" horiz-adv-x="0" />
<glyph unicode=" " />
<glyph unicode="!" d="M135 70q0 35 25.5 60.5t62.5 25.5t62.5 -25.5t25.5 -60.5q0 -37 -25.5 -62.5t-62.5 -25.5t-62.5 25.5t-25.5 62.5zM156 1366h135l-27 -1012h-82z" />
<glyph unicode="&#x22;" horiz-adv-x="645" d="M119 1315q0 29 21 50t50 21q30 0 51 -21t21 -50l-41 -436h-59q-43 409 -43 436zM383 1315q0 29 20.5 50t51.5 21q29 0 50 -21t21 -50l-43 -436h-59q-41 409 -41 436z" />
<glyph unicode="#" horiz-adv-x="1011" d="M43 381l20 82h191l123 438h-191l21 82h194l107 383h94l-106 -383h194l107 383h94l-109 -383h187l-19 -82h-190l-125 -438h194l-22 -82h-197l-106 -381h-94l110 381h-196l-109 -381h-94l108 381h-186zM346 463h195l125 438h-195z" />
<glyph unicode="$" horiz-adv-x="929" d="M74 145l69 88q48 -65 124.5 -107t168.5 -46v582q-44 22 -69 35t-64 37t-62 43.5t-50.5 50t-42 61t-25 71.5t-10.5 87q0 141 91.5 233t231.5 106v187h92v-187q178 -14 293 -139l-63 -86q-92 105 -230 121v-530q58 -30 95.5 -52.5t85 -60.5t75 -77.5t47 -97t19.5 -124.5 q0 -137 -81.5 -238t-240.5 -122v-185h-92v180q-227 9 -362 170zM229 1051q0 -45 15.5 -82.5t46 -68t63.5 -53t82 -48.5v481q-91 -12 -149 -74t-58 -155zM528 86q101 19 153 87.5t52 160.5q0 97 -53.5 161t-151.5 117v-526z" />
<glyph unicode="%" horiz-adv-x="1312" d="M68 1049q0 146 77.5 241.5t202.5 95.5t203 -95.5t78 -241.5q0 -144 -78 -238t-203 -94t-202.5 94t-77.5 238zM160 1049q0 -107 52 -181.5t136 -74.5q85 0 137 74t52 182q0 111 -51.5 185.5t-137.5 74.5q-84 0 -136 -75t-52 -185zM262 0l713 1366h86l-717 -1366h-82z M686 309q0 146 78 241t201 95q125 0 202.5 -95t77.5 -241q0 -144 -78 -239t-202 -95q-123 0 -201 95t-78 239zM776 309q0 -107 52.5 -181.5t136.5 -74.5q85 0 137.5 74t52.5 182q0 110 -52 184t-138 74q-84 0 -136.5 -74t-52.5 -184z" />
<glyph unicode="&#x26;" horiz-adv-x="1042" d="M86 336q0 76 19.5 140.5t57 115.5t75.5 87t92 77q-92 186 -92 309q0 143 72.5 232t187.5 89q101 0 166 -69.5t65 -186.5q0 -69 -19 -125t-65.5 -107t-77 -76.5t-99.5 -76.5l-3 -3t-3 -2t-3.5 -2.5t-3.5 -2.5q64 -113 133 -211q67 -104 135 -194q70 144 115 323l94 -39 q-66 -228 -144 -368l207 -246h-139q-89 108 -125 156q-137 -181 -319 -181q-141 0 -233.5 96.5t-92.5 264.5zM199 340q0 -129 64 -200.5t159 -71.5q135 0 246 165q-119 158 -158 220q-83 124 -137 219q-83 -69 -128.5 -146.5t-45.5 -185.5zM346 1065q0 -98 68 -248 q51 36 83.5 64t66 66.5t49.5 83.5t16 97q0 83 -37 126.5t-94 43.5q-69 0 -110.5 -60.5t-41.5 -172.5z" />
<glyph unicode="'" horiz-adv-x="382" d="M119 1315q0 29 21 50t50 21q30 0 51 -21t21 -50l-41 -436h-59q-43 409 -43 436z" />
<glyph unicode="(" horiz-adv-x="425" d="M94 498q0 488 230 905l65 -37q-89 -221 -133.5 -420t-44.5 -448t44.5 -448.5t133.5 -418.5l-65 -39q-230 417 -230 906z" />
<glyph unicode=")" horiz-adv-x="425" d="M35 -369q89 214 133.5 415t44.5 452t-44.5 451.5t-133.5 416.5l65 37q230 -417 230 -905q0 -489 -230 -906z" />
<glyph unicode="*" horiz-adv-x="645" d="M57 993l213 109l-213 108l37 68l203 -131l-12 239h75l-12 -239l203 131l37 -68l-213 -108l213 -109l-37 -65l-203 131l12 -240h-75l12 240l-203 -131z" />
<glyph unicode="+" horiz-adv-x="892" d="M59 649v82h342v373h91v-373h342v-82h-342v-385h-91v385h-342z" />
<glyph unicode="," d="M117 -201q49 34 83.5 87.5t37.5 101.5l-9 -1q-9 -1 -12 -1q-36 0 -59 24t-23 60t25 61t61 25q42 0 71.5 -35t29.5 -94q0 -83 -41.5 -158.5t-104.5 -118.5z" />
<glyph unicode="-" horiz-adv-x="544" d="M61 449v94h422v-94h-422z" />
<glyph unicode="." d="M135 70q0 35 26.5 60.5t61.5 25.5q37 0 62.5 -25.5t25.5 -60.5q0 -37 -25.5 -62.5t-62.5 -25.5q-36 0 -62 26t-26 62z" />
<glyph unicode="/" horiz-adv-x="481" d="M0 -41l393 1448h88l-393 -1448h-88z" />
<glyph unicode="0" horiz-adv-x="1028" d="M109 682q0 83 8.5 163t27 161t50.5 148t75.5 120t106 82.5t137.5 29.5t137 -29.5t105.5 -82.5t76 -120t51 -148t27.5 -161t9 -163t-8.5 -163t-27 -161t-51 -149t-76 -121t-106 -83t-137.5 -30t-137.5 30t-106 83t-75.5 121t-50.5 149t-27 161t-8.5 163zM227 682 q0 -88 7 -167t27 -161t51 -140.5t83 -96t119 -37.5q82 0 141 54.5t88.5 147t42.5 190.5t13 210q0 88 -7 167.5t-27 160.5t-50.5 139.5t-82 95.5t-118.5 37t-118.5 -37t-82.5 -95.5t-51 -139.5t-27.5 -160.5t-7.5 -167.5z" />
<glyph unicode="1" horiz-adv-x="589" d="M37 1055l295 311h102v-1366h-112v1212l-213 -231z" />
<glyph unicode="2" horiz-adv-x="974" d="M109 1169q130 217 370 217q148 0 251.5 -95t103.5 -259q0 -65 -20 -133t-54.5 -134.5t-97.5 -156t-130.5 -176.5t-170.5 -218q-58 -73 -89 -112h566v-102h-723v94q47 58 119 147t107.5 132.5t90 112t79.5 103.5t63 87.5t54.5 82.5t38 71t29.5 71t14.5 64t6.5 67 q0 116 -70 183t-168 67q-193 0 -286 -178z" />
<glyph unicode="3" horiz-adv-x="933" d="M66 205l84 63q102 -188 292 -188q130 0 198.5 78t68.5 215q0 76 -23.5 132t-64 86.5t-88.5 45t-105 14.5q-82 0 -100 -2v109q20 -2 100 -2q113 0 187.5 66t74.5 192q0 130 -69 199t-181 69q-90 0 -154.5 -43.5t-121.5 -128.5l-80 64q57 98 151 155t211 57q159 0 260 -93 t101 -267q0 -123 -71 -208.5t-167 -110.5q60 -10 116 -50.5t97 -117.5t41 -172q0 -174 -99 -283t-280 -109q-129 0 -226.5 65t-151.5 165z" />
<glyph unicode="4" horiz-adv-x="899" d="M49 375v104l500 887h147v-889h154v-102h-154v-375h-114v375h-533zM158 477h424v756z" />
<glyph unicode="5" horiz-adv-x="974" d="M119 203l84 65q49 -95 118.5 -141.5t172.5 -46.5q115 0 187.5 97t72.5 235q0 161 -68.5 248.5t-183.5 87.5q-75 0 -136 -31t-120 -103l-88 37v715h643v-102h-531v-535q42 54 109 87.5t145 33.5q151 0 248.5 -114.5t97.5 -321.5q0 -188 -106.5 -313.5t-267.5 -125.5 q-95 0 -168.5 29.5t-120.5 77.5t-88 121z" />
<glyph unicode="6" horiz-adv-x="978" d="M109 682q0 138 22 258t69.5 223t133 163t201.5 60q201 0 305 -180l-72 -76q-42 75 -95.5 113.5t-137.5 38.5q-85 0 -148 -54.5t-97 -145.5t-49.5 -192t-15.5 -212v-47q40 84 122.5 148.5t184.5 64.5q154 0 251.5 -111t97.5 -321q0 -84 -24 -161t-69 -139.5t-117 -99.5 t-161 -37q-90 0 -160 40t-115 106t-74 159t-40.5 191.5t-11.5 210.5zM229 506q3 -45 10 -89.5t20 -94.5t34.5 -91.5t50 -76.5t70.5 -54.5t92 -19.5q65 0 116 29t80.5 77t44.5 104.5t15 117.5q0 172 -68.5 252.5t-183.5 80.5q-88 0 -162 -67t-119 -168z" />
<glyph unicode="7" horiz-adv-x="825" d="M57 1264v102h711v-78l-440 -1288h-123l436 1264h-584z" />
<glyph unicode="8" horiz-adv-x="962" d="M104 332q0 130 83.5 230t193.5 143q-48 18 -92 47.5t-82 70.5t-61 98t-23 121q0 84 30 151t80.5 108t114 63t133.5 22q95 0 175 -36.5t133 -116.5t53 -191q0 -64 -23 -121t-61 -98t-82 -70.5t-92 -47.5q110 -43 192 -143t82 -230q0 -162 -104 -259.5t-273 -97.5 t-273 97.5t-104 259.5zM221 340q0 -120 75 -190t185 -70t185 70t75 192q0 57 -21.5 109.5t-53.5 87.5t-69 62t-67 40t-49 16q-19 -3 -49 -16t-67 -40.5t-69 -62.5t-53.5 -87.5t-21.5 -110.5zM240 1032q0 -54 20.5 -101t49 -76.5t64 -53t61.5 -34.5t46 -15q20 4 46.5 15 t62.5 34.5t65 53t49.5 76.5t20.5 101q0 115 -67.5 182.5t-176.5 67.5t-175 -67t-66 -183z" />
<glyph unicode="9" horiz-adv-x="978" d="M98 954q0 82 23.5 159t68 139t116.5 99.5t161 37.5q90 0 161 -40t115.5 -106t74 -159t41 -191.5t11.5 -210.5q0 -109 -13.5 -207.5t-45 -190.5t-79.5 -159t-121.5 -107.5t-166.5 -40.5q-204 0 -305 181l72 75q42 -75 95.5 -113t137.5 -38q69 0 124 36.5t89 96t56.5 140 t31.5 161.5t9 168q0 31 -2 51q-38 -84 -121.5 -149.5t-184.5 -65.5q-153 0 -250.5 112t-97.5 322zM215 956q0 -172 69 -252.5t183 -80.5q90 0 164 67t117 168q-3 55 -11.5 108.5t-29 112.5t-50 103t-78 73t-108.5 29q-65 0 -115.5 -29t-80.5 -77t-45 -104.5t-15 -117.5z" />
<glyph unicode=":" d="M135 70q0 35 26.5 60.5t61.5 25.5q37 0 62.5 -25.5t25.5 -60.5q0 -37 -25.5 -62.5t-62.5 -25.5q-36 0 -62 26t-26 62zM135 915q0 35 26.5 62t61.5 27q36 0 62 -26.5t26 -62.5t-26 -62t-62 -26q-35 0 -61.5 26.5t-26.5 61.5z" />
<glyph unicode=";" d="M117 -199q49 34 83.5 87.5t37.5 101.5l-9 -1q-9 -1 -12 -1q-36 0 -59 24t-23 60t25 61t61 25q42 0 71.5 -35t29.5 -94q0 -83 -41.5 -158.5t-104.5 -118.5zM135 915q0 35 26.5 62t61.5 27q36 0 62 -26.5t26 -62.5t-26 -62t-62 -26q-35 0 -61.5 26.5t-26.5 61.5z" />
<glyph unicode="&#x3c;" horiz-adv-x="892" d="M59 649v74l775 389v-100l-668 -328l668 -326v-98z" />
<glyph unicode="=" horiz-adv-x="892" d="M59 442v82h775v-82h-775zM59 844v82h775v-82h-775z" />
<glyph unicode="&#x3e;" horiz-adv-x="892" d="M59 260v98l668 326l-668 328v100l775 -389v-74z" />
<glyph unicode="?" horiz-adv-x="790" d="M68 1233q121 156 327 156q147 0 238.5 -88t91.5 -216q0 -82 -34 -150.5t-82 -115t-96 -90t-82 -96.5t-34 -113q0 -29 14.5 -59.5t37.5 -50.5l-84 -50q-72 72 -72 164q0 53 17.5 99t45 80.5t61 66.5t67.5 64t61.5 65.5t45 78t17.5 95.5q0 87 -60 149t-163 62 q-85 0 -144.5 -31.5t-109.5 -95.5zM301 70q0 35 26.5 60.5t61.5 25.5q37 0 62.5 -25.5t25.5 -60.5q0 -37 -25.5 -62.5t-62.5 -25.5q-36 0 -62 26t-26 62z" />
<glyph unicode="@" horiz-adv-x="1400" d="M72 471q0 217 102 411t272 310.5t361 116.5q232 0 376 -162t144 -420q0 -122 -27 -228t-70.5 -176t-99 -109.5t-112.5 -39.5q-72 0 -116 46.5t-46 113.5v12q-51 -75 -122 -123.5t-154 -48.5q-110 0 -179 74t-69 215q0 140 57.5 269.5t157.5 210.5t213 81q77 0 130 -46 t77 -116l24 125h99l-123 -584q-6 -30 -6 -43q0 -104 81 -104q30 0 66 28t71.5 81.5t59 149t23.5 212.5q0 234 -127.5 375t-331.5 141q-105 0 -206 -42.5t-182.5 -117t-144.5 -171t-97 -210.5t-34 -229q0 -245 139 -399t357 -154q173 0 326 117l34 -51q-175 -129 -368 -129 q-160 0 -286.5 77.5t-197.5 217.5t-71 319zM434 469q0 -98 43.5 -155.5t124.5 -57.5q143 0 272 193l72 327q-16 65 -61 114.5t-115 49.5q-95 0 -174 -75t-120.5 -182t-41.5 -214z" />
<glyph unicode="A" horiz-adv-x="1007" d="M25 0l411 1366h135l412 -1366h-123l-98 338h-514l-98 -338h-125zM272 440h463l-231 793z" />
<glyph unicode="B" horiz-adv-x="1019" d="M154 0v1366h403q153 0 241.5 -93t88.5 -255q0 -124 -57 -205.5t-148 -107.5q95 -15 161 -114.5t66 -221.5q0 -172 -89 -270.5t-253 -98.5h-413zM268 102h283q117 0 177 73t60 202q0 115 -60.5 193.5t-176.5 78.5h-283v-547zM268 752h275q113 0 168 70.5t55 183.5 q0 114 -55.5 186t-167.5 72h-275v-512z" />
<glyph unicode="C" horiz-adv-x="1071" d="M109 682q0 204 61.5 364t178 251.5t269.5 91.5q236 0 377 -240l-96 -49q-99 184 -281 184q-176 0 -283.5 -169t-107.5 -433q0 -263 107.5 -432.5t283.5 -169.5q94 0 166 55.5t117 149.5l98 -49q-138 -261 -381 -261q-153 0 -269.5 92t-178 252t-61.5 363z" />
<glyph unicode="D" horiz-adv-x="1124" d="M154 0v1366h331q167 0 289 -91.5t182 -244.5t60 -348q0 -197 -60 -349.5t-181.5 -242.5t-289.5 -90h-331zM268 102h217q133 0 227 78t138.5 207t44.5 295q0 167 -44.5 296t-138.5 207.5t-227 78.5h-217v-1162z" />
<glyph unicode="E" horiz-adv-x="925" d="M154 0v1366h667v-102h-553v-512h539v-103h-539v-547h553v-102h-667z" />
<glyph unicode="F" horiz-adv-x="903" d="M154 0v1366h667v-102h-553v-512h539v-103h-539v-649h-114z" />
<glyph unicode="G" horiz-adv-x="1130" d="M109 682q0 209 63 369.5t178.5 249t267.5 88.5q243 0 386 -236l-93 -49q-104 180 -293 180q-117 0 -206.5 -77.5t-137 -214t-47.5 -310.5q0 -173 47.5 -310t137 -215.5t206.5 -78.5q89 0 162 37.5t117 93.5v364h-356v105h467v-512q-70 -92 -170.5 -142.5t-219.5 -50.5 q-229 0 -369 196.5t-140 512.5z" />
<glyph unicode="H" horiz-adv-x="1144" d="M154 0v1366h114v-612h611v612h112v-1366h-112v651h-611v-651h-114z" />
<glyph unicode="I" horiz-adv-x="421" d="M154 0v1366h114v-1366h-114z" />
<glyph unicode="J" horiz-adv-x="798" d="M20 111l64 86q86 -117 213 -117q109 0 171 66.5t62 187.5v1032h115v-1034q0 -176 -94 -266.5t-248 -90.5q-175 0 -283 136z" />
<glyph unicode="K" horiz-adv-x="1003" d="M154 0v1366h114v-745l518 745h138l-465 -651l506 -715h-140l-436 633l-121 -172v-461h-114z" />
<glyph unicode="L" horiz-adv-x="843" d="M154 0v1366h114v-1264h510v-102h-624z" />
<glyph unicode="M" horiz-adv-x="1353" d="M154 0v1366h165l359 -1077l358 1077h164v-1366h-113v1169l-387 -1169h-47l-385 1169v-1169h-114z" />
<glyph unicode="N" horiz-adv-x="1140" d="M154 0v1366h114l604 -1102v1102h115v-1366h-110l-609 1118v-1118h-114z" />
<glyph unicode="O" horiz-adv-x="1208" d="M109 682q0 199 55.5 357t169.5 254t270 96q155 0 269 -96t170.5 -254.5t56.5 -356.5t-56.5 -356.5t-170.5 -254.5t-269 -96q-156 0 -270 96t-169.5 254t-55.5 357zM227 682q0 -169 42.5 -303.5t129.5 -216.5t205 -82q117 0 203.5 82t129 217t42.5 303q0 170 -42.5 305 t-128.5 216t-204 81t-205 -81t-129.5 -216t-42.5 -305z" />
<glyph unicode="P" horiz-adv-x="958" d="M154 0v1366h376q115 0 198 -55.5t122 -144.5t39 -199q0 -109 -39.5 -197.5t-122.5 -144.5t-197 -56h-262v-569h-114zM268 672h254q115 0 180.5 81.5t65.5 213.5q0 133 -65.5 215t-180.5 82h-254v-592z" />
<glyph unicode="Q" horiz-adv-x="1208" d="M109 682q0 199 55.5 357t169.5 254t270 96q155 0 269 -96t170.5 -254.5t56.5 -356.5q0 -173 -45.5 -319t-130.5 -242l86 -129l-84 -55l-78 114q-105 -76 -244 -76q-156 0 -270 96t-169.5 254t-55.5 357zM227 682q0 -169 42.5 -303.5t129.5 -216.5t205 -82q106 0 184 63 l-174 265l86 55l158 -242q58 83 89.5 203t31.5 258q0 170 -42.5 305t-128.5 216t-204 81t-205 -81t-129.5 -216t-42.5 -305z" />
<glyph unicode="R" horiz-adv-x="1005" d="M154 0v1366h378q157 0 257 -106.5t100 -290.5q0 -174 -83.5 -272t-203.5 -113l301 -584h-131l-287 569h-217v-569h-114zM268 672h254q115 0 181.5 82t66.5 213q0 133 -66.5 215t-181.5 82h-254v-592z" />
<glyph unicode="S" horiz-adv-x="940" d="M72 145l69 88q52 -68 134.5 -110.5t179.5 -42.5q136 0 206 73.5t70 180.5q0 59 -21 107.5t-57 83t-82.5 63.5t-98 54.5t-103 52t-98 59.5t-82.5 72t-57 95.5t-21 125.5q0 152 105 247t261 95q213 0 342 -142l-63 -86q-106 123 -281 123q-105 0 -176.5 -64.5t-71.5 -168.5 q0 -51 21 -93t57 -73t83 -58.5t98.5 -53t102.5 -53.5t98 -64t83 -78.5t57 -103.5t21 -134q0 -72 -23.5 -136t-69.5 -116t-123.5 -82.5t-176.5 -30.5q-121 0 -218.5 45t-164.5 125z" />
<glyph unicode="T" horiz-adv-x="890" d="M55 1264v102h781v-102h-334v-1264h-115v1264h-332z" />
<glyph unicode="U" horiz-adv-x="1128" d="M154 430v936h114v-938q0 -173 77 -261.5t220 -88.5q141 0 218 88.5t77 261.5v938h115v-936q0 -220 -107 -337.5t-303 -117.5q-197 0 -304 117.5t-107 337.5z" />
<glyph unicode="V" horiz-adv-x="1007" d="M25 1366h125l354 -1225l356 1225h123l-412 -1366h-135z" />
<glyph unicode="W" horiz-adv-x="1419" d="M41 1366h123l244 -1184l249 1184h105l250 -1184l243 1184h123l-301 -1366h-125l-243 1151l-242 -1151h-125z" />
<glyph unicode="X" horiz-adv-x="1005" d="M25 0l411 696l-389 670h137l320 -569l319 569h135l-387 -668l410 -698h-133l-344 600l-344 -600h-135z" />
<glyph unicode="Y" horiz-adv-x="989" d="M16 1366h131l347 -666l350 666h129l-422 -780v-586h-113v586z" />
<glyph unicode="Z" horiz-adv-x="927" d="M86 0v100l606 1164h-606v102h739v-98l-608 -1166h623v-102h-754z" />
<glyph unicode="[" horiz-adv-x="409" d="M74 -389v1778h301v-86h-213v-1606h213v-86h-301z" />
<glyph unicode="\" horiz-adv-x="481" d="M2 1407h88l393 -1448h-88z" />
<glyph unicode="]" horiz-adv-x="409" d="M35 -303h213v1606h-213v86h301v-1778h-301v86z" />
<glyph unicode="^" horiz-adv-x="772" d="M39 682l307 684h82l305 -684h-92l-254 596l-254 -596h-94z" />
<glyph unicode="_" horiz-adv-x="864" d="M-6 -82h876v-86h-876v86z" />
<glyph unicode="`" horiz-adv-x="356" d="M0 1434h119l237 -295h-80z" />
<glyph unicode="a" horiz-adv-x="901" d="M94 305q0 149 85.5 238.5t211.5 89.5q166 0 260 -131v192q0 110 -54.5 170t-154.5 60q-142 0 -252 -127l-53 73q132 144 316 144q145 0 224 -78t79 -234v-702h-105v111q-95 -136 -260 -136q-125 0 -211 91t-86 239zM203 303q0 -105 58.5 -176.5t158.5 -71.5 q71 0 132.5 35.5t98.5 104.5v217q-37 69 -98 104t-133 35q-100 0 -158.5 -71.5t-58.5 -176.5z" />
<glyph unicode="b" horiz-adv-x="960" d="M145 0v1366h103v-528q45 85 115.5 130.5t148.5 45.5q164 0 257 -144t93 -376q0 -235 -93 -377t-257 -142q-78 0 -149 47.5t-115 124.5v-147h-103zM248 250q32 -75 101.5 -128.5t144.5 -53.5q86 0 145.5 59.5t86 153t26.5 213.5t-26.5 214t-86 154t-145.5 60 q-75 0 -144.5 -55.5t-101.5 -131.5v-485z" />
<glyph unicode="c" horiz-adv-x="819" d="M98 496q0 146 45 262.5t135 186t211 69.5q91 0 154 -33.5t115 -97.5l-62 -70q-80 109 -200 109q-93 0 -159.5 -60t-97 -154.5t-30.5 -211.5t30.5 -212t97 -155.5t159.5 -60.5q121 0 200 108l62 -70q-50 -65 -113.5 -98t-155.5 -33q-121 0 -211 70.5t-135 187.5t-45 263z " />
<glyph unicode="d" horiz-adv-x="960" d="M98 494q0 232 93.5 376t257.5 144q78 0 148.5 -45.5t115.5 -130.5v528h102v-1366h-102v147q-44 -77 -115 -124.5t-149 -47.5q-165 0 -258 142.5t-93 376.5zM209 494q0 -120 26.5 -213.5t86 -153t145.5 -59.5q75 0 144.5 53.5t101.5 128.5v487q-33 75 -102 130t-144 55 q-86 0 -145.5 -60t-86 -154t-26.5 -214z" />
<glyph unicode="e" horiz-adv-x="948" d="M98 496q0 145 45 261.5t133 186.5t205 70q93 0 166 -41.5t118 -113.5t68 -165t23 -200v-33h-647q3 -174 84.5 -286t218.5 -112q69 0 133 35t111 99l63 -60q-126 -162 -313 -162q-189 0 -298.5 145.5t-109.5 375.5zM207 543h545q-1 68 -16.5 132.5t-46.5 122t-85.5 93 t-124.5 35.5q-68 0 -121.5 -36t-84.5 -94.5t-47.5 -123t-18.5 -129.5z" />
<glyph unicode="f" horiz-adv-x="489" d="M45 897v92h131v141q0 119 60.5 187.5t166.5 68.5q94 0 158 -61l-47 -78q-43 49 -100 49q-66 0 -99.5 -43t-33.5 -123v-141h170v-92h-170v-897h-105v897h-131z" />
<glyph unicode="g" horiz-adv-x="960" d="M98 496q0 232 93.5 375t257.5 143q78 0 148.5 -46t113.5 -130v151h104v-1012q0 -102 -27.5 -176.5t-77.5 -117.5t-113.5 -63.5t-141.5 -20.5q-102 0 -177 27t-141 95l56 84q98 -116 258 -116q117 0 188.5 70t71.5 214v183q-43 -77 -114 -126.5t-148 -49.5 q-165 0 -258 141t-93 375zM209 496q0 -120 26.5 -213t86 -152t145.5 -59q75 0 144 55t100 129v481q-31 74 -100 129.5t-144 55.5q-86 0 -145.5 -59.5t-86 -153t-26.5 -213.5z" />
<glyph unicode="h" horiz-adv-x="921" d="M145 0v1366h103v-522q47 71 126 120.5t161 49.5q123 0 182 -63t59 -201v-750h-102v729q0 103 -44 148t-128 45q-73 0 -144 -51.5t-110 -122.5v-748h-103z" />
<glyph unicode="i" horiz-adv-x="393" d="M117 1225q0 33 23.5 56.5t56.5 23.5t56 -23.5t23 -56.5q0 -32 -23.5 -56t-55.5 -24t-56 24t-24 56zM145 0v989h103v-989h-103z" />
<glyph unicode="j" horiz-adv-x="393" d="M-129 -328l51 74q42 -57 103 -57q120 0 120 161v1139h103v-1139q0 -251 -217 -251q-99 0 -160 73zM117 1225q0 33 23.5 56.5t56.5 23.5t56 -23.5t23 -56.5q0 -32 -23.5 -56t-55.5 -24t-56 24t-24 56z" />
<glyph unicode="k" horiz-adv-x="868" d="M145 0v1366h103v-952l459 575h124l-358 -446l354 -543h-125l-299 471l-155 -192v-279h-103z" />
<glyph unicode="l" horiz-adv-x="393" d="M145 0v1366h103v-1366h-103z" />
<glyph unicode="m" horiz-adv-x="1370" d="M145 0v989h103v-145q37 65 112 117.5t156 52.5q92 0 148 -49t67 -129q39 73 115 125.5t160 52.5q221 0 221 -256v-758h-105v737q0 185 -149 185q-68 0 -134 -51.5t-102 -122.5v-748h-104v737q0 185 -150 185q-67 0 -132 -51.5t-103 -122.5v-748h-103z" />
<glyph unicode="n" horiz-adv-x="921" d="M145 0v989h103v-145q48 71 126 120.5t161 49.5q122 0 181.5 -65t59.5 -201v-748h-104v727q0 103 -43.5 149t-126.5 46q-74 0 -144.5 -51t-109.5 -123v-748h-103z" />
<glyph unicode="o" horiz-adv-x="960" d="M98 496q0 143 42 259t130 187.5t209 71.5q123 0 211.5 -72t130 -187t41.5 -259q0 -85 -15 -162t-46.5 -142.5t-76.5 -114t-108 -75.5t-137 -27q-121 0 -209 72.5t-130 188.5t-42 260zM209 496q0 -83 16.5 -158t48.5 -136t85 -97.5t120 -36.5q91 0 154.5 63.5t91 157.5 t27.5 207q0 112 -27.5 205.5t-91 157t-154.5 63.5q-89 0 -152 -63.5t-90.5 -157t-27.5 -205.5z" />
<glyph unicode="p" horiz-adv-x="956" d="M145 -377v1366h103v-147q44 77 115 124.5t149 47.5q164 0 257 -142t93 -376t-93 -377.5t-257 -143.5q-78 0 -148.5 46t-115.5 131v-529h-103zM248 252q32 -74 101.5 -129t144.5 -55q86 0 145.5 60t86 154t26.5 214t-26.5 213.5t-86 153t-145.5 59.5q-75 0 -144.5 -54 t-101.5 -129v-487z" />
<glyph unicode="q" horiz-adv-x="956" d="M94 496q0 234 93 376t257 142q78 0 150.5 -48t114.5 -124v147h104v-1366h-104v529q-45 -85 -115.5 -131t-149.5 -46q-164 0 -257 143.5t-93 377.5zM205 496q0 -120 26.5 -214t86 -154t145.5 -60q75 0 144.5 55t101.5 129v487q-32 75 -101.5 129t-144.5 54 q-86 0 -145.5 -59.5t-86 -153t-26.5 -213.5z" />
<glyph unicode="r" horiz-adv-x="569" d="M145 0v989h103v-168q116 189 284 189v-113q-14 2 -45 2q-69 0 -138 -53.5t-101 -124.5v-721h-103z" />
<glyph unicode="s" horiz-adv-x="772" d="M66 115l59 73q95 -125 252 -125q94 0 151.5 50.5t57.5 132.5q0 52 -27 92t-71 66t-96.5 48.5t-105 48.5t-96.5 58t-71 83.5t-27 119.5q0 108 81.5 180t213.5 72q178 0 283 -127l-56 -72q-79 111 -227 111q-88 0 -141 -46t-53 -116q0 -48 27 -85t70.5 -61.5t96.5 -46.5 t105.5 -49t96 -60.5t70.5 -88t27 -125.5q0 -120 -84 -196.5t-223 -76.5q-196 0 -313 140z" />
<glyph unicode="t" horiz-adv-x="509" d="M35 897v92h135v271h102v-271h170v-92h-170v-702q0 -127 86 -127q58 0 91 45l40 -76q-59 -62 -147 -62q-172 0 -172 207v715h-135z" />
<glyph unicode="u" horiz-adv-x="921" d="M145 240v749h103v-729q0 -103 43.5 -147.5t126.5 -44.5q75 0 146 49.5t108 120.5v751h104v-989h-104v141q-49 -72 -124.5 -119t-160.5 -47q-123 0 -182.5 63.5t-59.5 201.5z" />
<glyph unicode="v" horiz-adv-x="802" d="M20 989h115l266 -866l267 866h114l-323 -989h-117z" />
<glyph unicode="w" horiz-adv-x="1261" d="M35 989h110l211 -842l224 842h100l225 -842l211 842h111l-266 -989h-103l-227 848l-228 -848h-102z" />
<glyph unicode="x" horiz-adv-x="804" d="M35 0l305 504l-289 485h119l231 -405l234 405h119l-289 -485l305 -504h-119l-250 426l-249 -426h-117z" />
<glyph unicode="y" horiz-adv-x="802" d="M20 989h115l266 -862l267 862h114l-399 -1214q-31 -93 -83.5 -134.5t-129.5 -41.5q-53 0 -88 14l18 94q29 -16 66 -16q44 0 71 24t50 86l59 179z" />
<glyph unicode="z" horiz-adv-x="776" d="M96 0v86l451 811h-451v92h576v-84l-453 -813h461v-92h-584z" />
<glyph unicode="{" horiz-adv-x="454" d="M12 461v80q51 0 79 41t28 102v477q0 100 62 164t143 64h96v-86h-96q-48 0 -82.5 -40t-34.5 -102v-481q0 -141 -92 -180q92 -39 92 -181v-481q0 -60 34.5 -100.5t82.5 -40.5h96v-86h-96q-81 0 -143 63.5t-62 163.5v477q0 61 -28 103.5t-79 42.5z" />
<glyph unicode="|" horiz-adv-x="393" d="M154 -41v1448h86v-1448h-86z" />
<glyph unicode="}" horiz-adv-x="454" d="M35 -303h94q48 0 82.5 40.5t34.5 100.5v481q0 142 92 181q-92 39 -92 180v481q0 62 -34.5 102t-82.5 40h-94v86h94q82 0 143.5 -64t61.5 -164v-477q0 -61 27.5 -102t78.5 -41v-80q-51 0 -78.5 -42.5t-27.5 -103.5v-477q0 -100 -61.5 -163.5t-143.5 -63.5h-94v86z" />
<glyph unicode="~" horiz-adv-x="905" d="M57 887q5 62 12 113t18.5 108.5t30 100.5t43 79t59.5 55t79 19q62 0 103 -41.5t60.5 -101t35.5 -119t42 -101t66 -41.5q69 0 103.5 98t54.5 310l86 -8q-6 -77 -14.5 -137.5t-26.5 -127.5t-43.5 -111.5t-66 -73.5t-93.5 -29q-62 0 -102.5 41.5t-60.5 100.5t-36 117.5 t-42 100t-66 41.5q-68 0 -102 -97.5t-54 -308.5z" />
<glyph unicode="&#xa0;" />
<glyph unicode="&#xa2;" horiz-adv-x="819" d="M98 496q0 205 90.5 348t247.5 166v147h88v-145q137 -10 234 -129l-62 -70q-74 98 -172 107v-852q102 12 172 108l62 -70q-91 -119 -234 -129v-182h-88v185q-158 23 -248 166.5t-90 349.5zM209 496q0 -161 58 -278t169 -144v839q-111 -27 -169 -142t-58 -275z" />
<glyph unicode="&#xa3;" horiz-adv-x="886" d="M49 549v84h205q-5 7 -29 40t-31.5 45t-27 42.5t-27 52t-18.5 53t-15 64t-4 69.5q0 102 45.5 190t130.5 142.5t191 54.5q113 0 198 -58.5t124 -160.5l-91 -51q-28 73 -85.5 122.5t-139.5 49.5q-103 0 -177.5 -79.5t-74.5 -211.5q0 -62 17.5 -118.5t36 -88.5t54.5 -83 t50 -74h233v-84h-194q18 -50 18 -113q0 -89 -43 -167.5t-110 -131.5q51 21 94 21q59 0 136.5 -40t123.5 -40q54 0 101 24t67 56l53 -92q-35 -40 -96.5 -66.5t-130.5 -26.5q-52 0 -94 14t-64.5 31t-58.5 31t-78 14q-81 0 -199 -77l-47 92q115 59 177.5 150.5t62.5 191.5 q0 58 -29 129h-254z" />
<glyph unicode="&#xa5;" horiz-adv-x="989" d="M16 1366h131l347 -666l350 666h129l-379 -698h350v-82h-393v-246h393v-82h-393v-258h-113v258h-395v82h395v246h-395v82h350z" />
<glyph unicode="&#xa8;" horiz-adv-x="532" d="M20 1231q0 31 21.5 52.5t52.5 21.5t52.5 -21.5t21.5 -52.5t-21.5 -53.5t-52.5 -22.5t-52.5 22.5t-21.5 53.5zM362 1231q0 31 22.5 52.5t53.5 21.5t52.5 -21.5t21.5 -52.5t-21.5 -53.5t-52.5 -22.5t-53.5 22.5t-22.5 53.5z" />
<glyph unicode="&#xa9;" horiz-adv-x="1593" d="M90 684q0 192 95 355t258 257.5t354 94.5q144 0 275 -56t225 -150.5t150 -225.5t56 -275q0 -143 -56 -274t-150 -226t-225 -151t-275 -56q-191 0 -354 95t-258 258t-95 354zM147 684q0 -175 87.5 -324.5t237.5 -237t325 -87.5t324.5 87.5t237 237t87.5 324.5t-87.5 324.5 t-237 237t-324.5 87.5t-325 -87.5t-237.5 -237t-87.5 -324.5zM373 686q0 188 124 313t304 125q181 0 295 -133l-45 -45q-39 53 -108 85t-142 32q-96 0 -177.5 -45.5t-132.5 -133t-51 -198.5q0 -162 107.5 -270.5t253.5 -108.5q74 0 142 32.5t108 86.5l45 -45 q-116 -135 -295 -135t-303.5 127.5t-124.5 312.5z" />
<glyph unicode="&#xab;" horiz-adv-x="716" d="M61 498l256 362h105l-256 -362l256 -369h-105zM295 498l256 362h104l-256 -362l256 -369h-104z" />
<glyph unicode="&#xad;" horiz-adv-x="544" d="M61 449v94h422v-94h-422z" />
<glyph unicode="&#xae;" horiz-adv-x="1011" d="M72 952q0 181 127 307.5t307 126.5q119 0 219 -57.5t157.5 -157.5t57.5 -219q0 -180 -126.5 -307t-307.5 -127q-180 0 -307 127t-127 307zM127 952q0 -156 111.5 -267.5t267.5 -111.5t267.5 111.5t111.5 267.5q0 158 -111 268.5t-268 110.5t-268 -110.5t-111 -268.5z M342 702v498h203q65 0 109 -42t44 -109q0 -72 -46 -110t-81 -38l134 -199h-78l-129 197h-95v-197h-61zM403 958h142q34 0 62 27t28 64q0 40 -28 67t-62 27h-142v-185z" />
<glyph unicode="&#xb4;" horiz-adv-x="356" d="M0 1139l238 295h118l-276 -295h-80z" />
<glyph unicode="&#xb8;" horiz-adv-x="364" d="M0 -328l33 66q63 -57 141 -57q48 0 82.5 25.5t34.5 66.5q0 37 -19.5 57t-54.5 20q-43 0 -72 -32l-55 32l64 173h75l-53 -140q30 23 68 23q52 0 86.5 -37t34.5 -96q0 -70 -55 -115t-136 -45q-104 0 -174 59z" />
<glyph unicode="&#xbb;" horiz-adv-x="716" d="M61 129l256 369l-256 362h105l256 -362l-256 -369h-105zM295 129l256 369l-256 362h104l256 -362l-256 -369h-104z" />
<glyph unicode="&#xc0;" horiz-adv-x="1007" d="M25 0l411 1366h135l412 -1366h-123l-98 338h-514l-98 -338h-125zM238 1776h118l238 -295h-80zM272 440h463l-231 793z" />
<glyph unicode="&#xc1;" horiz-adv-x="1007" d="M25 0l411 1366h135l412 -1366h-123l-98 338h-514l-98 -338h-125zM272 440h463l-231 793zM416 1481l237 295h119l-276 -295h-80z" />
<glyph unicode="&#xc2;" horiz-adv-x="1007" d="M25 0l411 1366h135l412 -1366h-123l-98 338h-514l-98 -338h-125zM272 440h463l-231 793zM283 1481l168 295h106l174 -295h-74l-153 229l-148 -229h-73z" />
<glyph unicode="&#xc4;" horiz-adv-x="1007" d="M25 0l411 1366h135l412 -1366h-123l-98 338h-514l-98 -338h-125zM260 1573q0 31 21.5 52.5t52.5 21.5t52.5 -21.5t21.5 -52.5t-21.5 -53.5t-52.5 -22.5t-52.5 22.5t-21.5 53.5zM272 440h463l-231 793zM602 1573q0 31 22.5 52.5t53.5 21.5t52.5 -21.5t21.5 -52.5 t-21.5 -53.5t-52.5 -22.5t-53.5 22.5t-22.5 53.5z" />
<glyph unicode="&#xc8;" horiz-adv-x="925" d="M154 0v1366h667v-102h-553v-512h539v-103h-539v-547h553v-102h-667zM221 1776h119l238 -295h-80z" />
<glyph unicode="&#xc9;" horiz-adv-x="925" d="M154 0v1366h667v-102h-553v-512h539v-103h-539v-547h553v-102h-667zM397 1481l238 295h119l-277 -295h-80z" />
<glyph unicode="&#xca;" horiz-adv-x="925" d="M154 0v1366h667v-102h-553v-512h539v-103h-539v-547h553v-102h-667zM266 1481l168 295h107l174 -295h-74l-154 229l-147 -229h-74z" />
<glyph unicode="&#xcb;" horiz-adv-x="925" d="M154 0v1366h667v-102h-553v-512h539v-103h-539v-547h553v-102h-667zM242 1573q0 31 21 52.5t52 21.5t52.5 -21.5t21.5 -52.5t-21.5 -53.5t-52.5 -22.5q-30 0 -51.5 22.5t-21.5 53.5zM584 1573q0 31 22 52.5t53 21.5t52.5 -21.5t21.5 -52.5t-21.5 -53.5t-52.5 -22.5 t-53 22.5t-22 53.5z" />
<glyph unicode="&#xcc;" horiz-adv-x="421" d="M-55 1776h118l238 -295h-80zM154 0v1366h114v-1366h-114z" />
<glyph unicode="&#xcd;" horiz-adv-x="421" d="M123 1481l237 295h119l-276 -295h-80zM154 0v1366h114v-1366h-114z" />
<glyph unicode="&#xce;" horiz-adv-x="421" d="M-10 1481l168 295h106l174 -295h-73l-154 229l-148 -229h-73zM154 0v1366h114v-1366h-114z" />
<glyph unicode="&#xcf;" horiz-adv-x="421" d="M-33 1573q0 31 21.5 52.5t52.5 21.5t52.5 -21.5t21.5 -52.5t-21.5 -53.5t-52.5 -22.5t-52.5 22.5t-21.5 53.5zM154 0v1366h114v-1366h-114zM309 1573q0 31 22.5 52.5t53.5 21.5t52.5 -21.5t21.5 -52.5t-21.5 -53.5t-52.5 -22.5t-53.5 22.5t-22.5 53.5z" />
<glyph unicode="&#xd2;" horiz-adv-x="1208" d="M109 682q0 199 55.5 357t169.5 254t270 96q155 0 269 -96t170.5 -254.5t56.5 -356.5t-56.5 -356.5t-170.5 -254.5t-269 -96q-156 0 -270 96t-169.5 254t-55.5 357zM227 682q0 -169 42.5 -303.5t129.5 -216.5t205 -82q117 0 203.5 82t129 217t42.5 303q0 170 -42.5 305 t-128.5 216t-204 81t-205 -81t-129.5 -216t-42.5 -305zM336 1776h119l237 -295h-80z" />
<glyph unicode="&#xd3;" horiz-adv-x="1208" d="M109 682q0 199 55.5 357t169.5 254t270 96q155 0 269 -96t170.5 -254.5t56.5 -356.5t-56.5 -356.5t-170.5 -254.5t-269 -96q-156 0 -270 96t-169.5 254t-55.5 357zM227 682q0 -169 42.5 -303.5t129.5 -216.5t205 -82q117 0 203.5 82t129 217t42.5 303q0 170 -42.5 305 t-128.5 216t-204 81t-205 -81t-129.5 -216t-42.5 -305zM514 1481l238 295h118l-276 -295h-80z" />
<glyph unicode="&#xd4;" horiz-adv-x="1208" d="M109 682q0 199 55.5 357t169.5 254t270 96q155 0 269 -96t170.5 -254.5t56.5 -356.5t-56.5 -356.5t-170.5 -254.5t-269 -96q-156 0 -270 96t-169.5 254t-55.5 357zM227 682q0 -169 42.5 -303.5t129.5 -216.5t205 -82q117 0 203.5 82t129 217t42.5 303q0 170 -42.5 305 t-128.5 216t-204 81t-205 -81t-129.5 -216t-42.5 -305zM383 1481l168 295h106l174 -295h-73l-154 229l-147 -229h-74z" />
<glyph unicode="&#xd6;" horiz-adv-x="1208" d="M109 682q0 199 55.5 357t169.5 254t270 96q155 0 269 -96t170.5 -254.5t56.5 -356.5t-56.5 -356.5t-170.5 -254.5t-269 -96q-156 0 -270 96t-169.5 254t-55.5 357zM227 682q0 -169 42.5 -303.5t129.5 -216.5t205 -82q117 0 203.5 82t129 217t42.5 303q0 170 -42.5 305 t-128.5 216t-204 81t-205 -81t-129.5 -216t-42.5 -305zM356 1573q0 31 21.5 52.5t52.5 21.5t52.5 -21.5t21.5 -52.5t-21.5 -53.5t-52.5 -22.5t-52.5 22.5t-21.5 53.5zM698 1573q0 31 22.5 52.5t53.5 21.5t52.5 -21.5t21.5 -52.5t-21.5 -53.5t-52.5 -22.5t-53.5 22.5 t-22.5 53.5z" />
<glyph unicode="&#xd9;" horiz-adv-x="1128" d="M154 430v936h114v-938q0 -173 77 -261.5t220 -88.5q141 0 218 88.5t77 261.5v938h115v-936q0 -220 -107 -337.5t-303 -117.5q-197 0 -304 117.5t-107 337.5zM297 1776h119l237 -295h-80z" />
<glyph unicode="&#xda;" horiz-adv-x="1128" d="M154 430v936h114v-938q0 -173 77 -261.5t220 -88.5q141 0 218 88.5t77 261.5v938h115v-936q0 -220 -107 -337.5t-303 -117.5q-197 0 -304 117.5t-107 337.5zM475 1481l238 295h118l-276 -295h-80z" />
<glyph unicode="&#xdb;" horiz-adv-x="1128" d="M154 430v936h114v-938q0 -173 77 -261.5t220 -88.5q141 0 218 88.5t77 261.5v938h115v-936q0 -220 -107 -337.5t-303 -117.5q-197 0 -304 117.5t-107 337.5zM344 1481l168 295h106l175 -295h-74l-154 229l-147 -229h-74z" />
<glyph unicode="&#xdc;" horiz-adv-x="1128" d="M154 430v936h114v-938q0 -173 77 -261.5t220 -88.5q141 0 218 88.5t77 261.5v938h115v-936q0 -220 -107 -337.5t-303 -117.5q-197 0 -304 117.5t-107 337.5zM319 1573q0 31 21.5 52.5t52.5 21.5t52.5 -21.5t21.5 -52.5t-21.5 -53.5t-52.5 -22.5t-52.5 22.5t-21.5 53.5z M662 1573q0 31 22 52.5t53 21.5t52.5 -21.5t21.5 -52.5t-21.5 -53.5t-52.5 -22.5t-53 22.5t-22 53.5z" />
<glyph unicode="&#xdd;" horiz-adv-x="989" d="M16 1366h131l347 -666l350 666h129l-422 -780v-586h-113v586zM406 1481l237 295h119l-277 -295h-79z" />
<glyph unicode="&#xe0;" horiz-adv-x="901" d="M94 305q0 149 85.5 238.5t211.5 89.5q166 0 260 -131v192q0 110 -54.5 170t-154.5 60q-142 0 -252 -127l-53 73q132 144 316 144q145 0 224 -78t79 -234v-702h-105v111q-95 -136 -260 -136q-125 0 -211 91t-86 239zM186 1434h119l238 -295h-80zM203 303 q0 -105 58.5 -176.5t158.5 -71.5q71 0 132.5 35.5t98.5 104.5v217q-37 69 -98 104t-133 35q-100 0 -158.5 -71.5t-58.5 -176.5z" />
<glyph unicode="&#xe2;" horiz-adv-x="901" d="M94 305q0 149 85.5 238.5t211.5 89.5q166 0 260 -131v192q0 110 -54.5 170t-154.5 60q-142 0 -252 -127l-53 73q132 144 316 144q145 0 224 -78t79 -234v-702h-105v111q-95 -136 -260 -136q-125 0 -211 91t-86 239zM203 303q0 -105 58.5 -176.5t158.5 -71.5 q71 0 132.5 35.5t98.5 104.5v217q-37 69 -98 104t-133 35q-100 0 -158.5 -71.5t-58.5 -176.5zM233 1139l168 295h107l174 -295h-74l-153 229l-148 -229h-74z" />
<glyph unicode="&#xe4;" horiz-adv-x="901" d="M94 305q0 149 85.5 238.5t211.5 89.5q166 0 260 -131v192q0 110 -54.5 170t-154.5 60q-142 0 -252 -127l-53 73q132 144 316 144q145 0 224 -78t79 -234v-702h-105v111q-95 -136 -260 -136q-125 0 -211 91t-86 239zM203 303q0 -105 58.5 -176.5t158.5 -71.5 q71 0 132.5 35.5t98.5 104.5v217q-37 69 -98 104t-133 35q-100 0 -158.5 -71.5t-58.5 -176.5zM207 1231q0 31 21.5 52.5t52.5 21.5t52 -21.5t21 -52.5t-21.5 -53.5t-51.5 -22.5q-31 0 -52.5 22.5t-21.5 53.5zM549 1231q0 31 22.5 52.5t53.5 21.5t52 -21.5t21 -52.5 t-21.5 -53.5t-51.5 -22.5q-31 0 -53.5 22.5t-22.5 53.5z" />
<glyph unicode="&#xe8;" horiz-adv-x="948" d="M98 496q0 145 45 261.5t133 186.5t205 70q93 0 166 -41.5t118 -113.5t68 -165t23 -200v-33h-647q3 -174 84.5 -286t218.5 -112q69 0 133 35t111 99l63 -60q-126 -162 -313 -162q-189 0 -298.5 145.5t-109.5 375.5zM207 543h545q-1 68 -16.5 132.5t-46.5 122t-85.5 93 t-124.5 35.5q-68 0 -121.5 -36t-84.5 -94.5t-47.5 -123t-18.5 -129.5zM213 1434h119l237 -295h-80z" />
<glyph unicode="&#xe9;" horiz-adv-x="948" d="M98 496q0 145 45 261.5t133 186.5t205 70q93 0 166 -41.5t118 -113.5t68 -165t23 -200v-33h-647q3 -174 84.5 -286t218.5 -112q69 0 133 35t111 99l63 -60q-126 -162 -313 -162q-189 0 -298.5 145.5t-109.5 375.5zM207 543h545q-1 68 -16.5 132.5t-46.5 122t-85.5 93 t-124.5 35.5q-68 0 -121.5 -36t-84.5 -94.5t-47.5 -123t-18.5 -129.5zM391 1139l238 295h119l-277 -295h-80z" />
<glyph unicode="&#xea;" horiz-adv-x="948" d="M98 496q0 145 45 261.5t133 186.5t205 70q93 0 166 -41.5t118 -113.5t68 -165t23 -200v-33h-647q3 -174 84.5 -286t218.5 -112q69 0 133 35t111 99l63 -60q-126 -162 -313 -162q-189 0 -298.5 145.5t-109.5 375.5zM207 543h545q-1 68 -16.5 132.5t-46.5 122t-85.5 93 t-124.5 35.5q-68 0 -121.5 -36t-84.5 -94.5t-47.5 -123t-18.5 -129.5zM260 1139l168 295h107l174 -295h-74l-154 229l-147 -229h-74z" />
<glyph unicode="&#xeb;" horiz-adv-x="948" d="M98 496q0 145 45 261.5t133 186.5t205 70q93 0 166 -41.5t118 -113.5t68 -165t23 -200v-33h-647q3 -174 84.5 -286t218.5 -112q69 0 133 35t111 99l63 -60q-126 -162 -313 -162q-189 0 -298.5 145.5t-109.5 375.5zM207 543h545q-1 68 -16.5 132.5t-46.5 122t-85.5 93 t-124.5 35.5q-68 0 -121.5 -36t-84.5 -94.5t-47.5 -123t-18.5 -129.5zM236 1231q0 31 21 52.5t52 21.5t52.5 -21.5t21.5 -52.5t-21.5 -53.5t-52.5 -22.5q-30 0 -51.5 22.5t-21.5 53.5zM578 1231q0 31 22 52.5t53 21.5t52.5 -21.5t21.5 -52.5t-21.5 -53.5t-52.5 -22.5 t-53 22.5t-22 53.5z" />
<glyph unicode="&#xec;" horiz-adv-x="393" d="M-70 1434h119l238 -295h-80zM145 0v989h103v-989h-103z" />
<glyph unicode="&#xed;" horiz-adv-x="393" d="M106 1139l238 295h119l-277 -295h-80zM145 0v989h103v-989h-103z" />
<glyph unicode="&#xee;" horiz-adv-x="393" d="M-27 1139l168 295h107l174 -295h-74l-153 229l-148 -229h-74zM145 0v989h103v-989h-103z" />
<glyph unicode="&#xef;" horiz-adv-x="393" d="M-49 1231q0 31 21.5 52.5t52.5 21.5t52 -21.5t21 -52.5t-21.5 -53.5t-51.5 -22.5q-31 0 -52.5 22.5t-21.5 53.5zM145 0v989h103v-989h-103zM293 1231q0 31 22.5 52.5t53.5 21.5t52 -21.5t21 -52.5t-21.5 -53.5t-51.5 -22.5q-31 0 -53.5 22.5t-22.5 53.5z" />
<glyph unicode="&#xf2;" horiz-adv-x="960" d="M98 496q0 143 42 259t130 187.5t209 71.5q123 0 211.5 -72t130 -187t41.5 -259q0 -85 -15 -162t-46.5 -142.5t-76.5 -114t-108 -75.5t-137 -27q-121 0 -209 72.5t-130 188.5t-42 260zM209 496q0 -83 16.5 -158t48.5 -136t85 -97.5t120 -36.5q91 0 154.5 63.5t91 157.5 t27.5 207q0 112 -27.5 205.5t-91 157t-154.5 63.5q-89 0 -152 -63.5t-90.5 -157t-27.5 -205.5zM215 1434h119l237 -295h-79z" />
<glyph unicode="&#xf3;" horiz-adv-x="960" d="M98 496q0 143 42 259t130 187.5t209 71.5q123 0 211.5 -72t130 -187t41.5 -259q0 -85 -15 -162t-46.5 -142.5t-76.5 -114t-108 -75.5t-137 -27q-121 0 -209 72.5t-130 188.5t-42 260zM209 496q0 -83 16.5 -158t48.5 -136t85 -97.5t120 -36.5q91 0 154.5 63.5t91 157.5 t27.5 207q0 112 -27.5 205.5t-91 157t-154.5 63.5q-89 0 -152 -63.5t-90.5 -157t-27.5 -205.5zM391 1139l238 295h119l-277 -295h-80z" />
<glyph unicode="&#xf4;" horiz-adv-x="960" d="M98 496q0 143 42 259t130 187.5t209 71.5q123 0 211.5 -72t130 -187t41.5 -259q0 -85 -15 -162t-46.5 -142.5t-76.5 -114t-108 -75.5t-137 -27q-121 0 -209 72.5t-130 188.5t-42 260zM209 496q0 -83 16.5 -158t48.5 -136t85 -97.5t120 -36.5q91 0 154.5 63.5t91 157.5 t27.5 207q0 112 -27.5 205.5t-91 157t-154.5 63.5q-89 0 -152 -63.5t-90.5 -157t-27.5 -205.5zM258 1139l168 295h106l175 -295h-74l-154 229l-147 -229h-74z" />
<glyph unicode="&#xf6;" horiz-adv-x="960" d="M98 496q0 143 42 259t130 187.5t209 71.5q123 0 211.5 -72t130 -187t41.5 -259q0 -85 -15 -162t-46.5 -142.5t-76.5 -114t-108 -75.5t-137 -27q-121 0 -209 72.5t-130 188.5t-42 260zM209 496q0 -83 16.5 -158t48.5 -136t85 -97.5t120 -36.5q91 0 154.5 63.5t91 157.5 t27.5 207q0 112 -27.5 205.5t-91 157t-154.5 63.5q-89 0 -152 -63.5t-90.5 -157t-27.5 -205.5zM236 1231q0 31 21 52.5t52 21.5t52.5 -21.5t21.5 -52.5t-21.5 -53.5t-52.5 -22.5q-30 0 -51.5 22.5t-21.5 53.5zM578 1231q0 31 22 52.5t53 21.5t52.5 -21.5t21.5 -52.5 t-21.5 -53.5t-52.5 -22.5t-53 22.5t-22 53.5z" />
<glyph unicode="&#xf9;" horiz-adv-x="921" d="M145 240v749h103v-729q0 -103 43.5 -147.5t126.5 -44.5q75 0 146 49.5t108 120.5v751h104v-989h-104v141q-49 -72 -124.5 -119t-160.5 -47q-123 0 -182.5 63.5t-59.5 201.5zM195 1434h118l238 -295h-80z" />
<glyph unicode="&#xfa;" horiz-adv-x="921" d="M145 240v749h103v-729q0 -103 43.5 -147.5t126.5 -44.5q75 0 146 49.5t108 120.5v751h104v-989h-104v141q-49 -72 -124.5 -119t-160.5 -47q-123 0 -182.5 63.5t-59.5 201.5zM371 1139l237 295h119l-276 -295h-80z" />
<glyph unicode="&#xfb;" horiz-adv-x="921" d="M145 240v749h103v-729q0 -103 43.5 -147.5t126.5 -44.5q75 0 146 49.5t108 120.5v751h104v-989h-104v141q-49 -72 -124.5 -119t-160.5 -47q-123 0 -182.5 63.5t-59.5 201.5zM238 1139l168 295h106l174 -295h-74l-153 229l-148 -229h-73z" />
<glyph unicode="&#xfc;" horiz-adv-x="921" d="M145 240v749h103v-729q0 -103 43.5 -147.5t126.5 -44.5q75 0 146 49.5t108 120.5v751h104v-989h-104v141q-49 -72 -124.5 -119t-160.5 -47q-123 0 -182.5 63.5t-59.5 201.5zM219 1231q0 31 21.5 52.5t52.5 21.5t52.5 -21.5t21.5 -52.5t-21.5 -53.5t-52.5 -22.5 t-52.5 22.5t-21.5 53.5zM561 1231q0 31 22.5 52.5t53.5 21.5t52.5 -21.5t21.5 -52.5t-21.5 -53.5t-52.5 -22.5t-53.5 22.5t-22.5 53.5z" />
<glyph unicode="&#xfd;" horiz-adv-x="802" d="M20 989h115l266 -862l267 862h114l-399 -1214q-31 -93 -83.5 -134.5t-129.5 -41.5q-53 0 -88 14l18 94q29 -16 66 -16q44 0 71 24t50 86l59 179zM311 1139l238 295h119l-277 -295h-80z" />
<glyph unicode="&#xff;" horiz-adv-x="802" d="M20 989h115l266 -862l267 862h114l-399 -1214q-31 -93 -83.5 -134.5t-129.5 -41.5q-53 0 -88 14l18 94q29 -16 66 -16q44 0 71 24t50 86l59 179zM156 1231q0 31 21 52.5t52 21.5t52.5 -21.5t21.5 -52.5t-21.5 -53.5t-52.5 -22.5q-30 0 -51.5 22.5t-21.5 53.5zM498 1231 q0 31 22 52.5t53 21.5t52.5 -21.5t21.5 -52.5t-21.5 -53.5t-52.5 -22.5t-53 22.5t-22 53.5z" />
<glyph unicode="&#x178;" horiz-adv-x="989" d="M16 1366h131l347 -666l350 666h129l-422 -780v-586h-113v586zM256 1573q0 31 21.5 52.5t52.5 21.5t52 -21.5t21 -52.5t-21.5 -53.5t-51.5 -22.5q-31 0 -52.5 22.5t-21.5 53.5zM598 1573q0 31 22.5 52.5t53.5 21.5t52.5 -21.5t21.5 -52.5t-21.5 -53.5t-52.5 -22.5 t-53.5 22.5t-22.5 53.5z" />
<glyph unicode="&#x2c6;" horiz-adv-x="448" d="M0 1139l168 295h106l175 -295h-74l-154 229l-147 -229h-74z" />
<glyph unicode="&#x2da;" horiz-adv-x="358" d="M0 1305q0 73 53 126.5t127 53.5t126 -53t52 -127q0 -75 -51.5 -128t-126.5 -53q-74 0 -127 53t-53 128zM63 1305q0 -49 34.5 -84t82.5 -35q49 0 83 34.5t34 84.5q0 48 -34 82t-83 34q-47 0 -82 -34.5t-35 -81.5z" />
<glyph unicode="&#x2dc;" horiz-adv-x="532" d="M0 1147q0 120 42 197t122 77q37 0 64.5 -21.5t43 -52.5t29.5 -62.5t32 -53t42 -21.5q41 0 65.5 49.5t24.5 149.5h67q0 -121 -41 -197.5t-122 -76.5q-45 0 -76.5 33t-46 72.5t-37 72.5t-51.5 33q-41 0 -65.5 -49.5t-24.5 -149.5h-68z" />
<glyph unicode="&#x2000;" horiz-adv-x="888" />
<glyph unicode="&#x2001;" horiz-adv-x="1776" />
<glyph unicode="&#x2002;" horiz-adv-x="888" />
<glyph unicode="&#x2003;" horiz-adv-x="1776" />
<glyph unicode="&#x2004;" horiz-adv-x="592" />
<glyph unicode="&#x2005;" horiz-adv-x="444" />
<glyph unicode="&#x2006;" horiz-adv-x="296" />
<glyph unicode="&#x2007;" horiz-adv-x="296" />
<glyph unicode="&#x2008;" horiz-adv-x="222" />
<glyph unicode="&#x2009;" horiz-adv-x="355" />
<glyph unicode="&#x200a;" horiz-adv-x="98" />
<glyph unicode="&#x2010;" horiz-adv-x="544" d="M61 449v94h422v-94h-422z" />
<glyph unicode="&#x2011;" horiz-adv-x="544" d="M61 449v94h422v-94h-422z" />
<glyph unicode="&#x2012;" horiz-adv-x="544" d="M61 449v94h422v-94h-422z" />
<glyph unicode="&#x2013;" horiz-adv-x="1079" d="M61 449v94h957v-94h-957z" />
<glyph unicode="&#x2014;" horiz-adv-x="1509" d="M61 449v94h1387v-94h-1387z" />
<glyph unicode="&#x2018;" d="M117 1112q0 81 41.5 155.5t103.5 118.5l60 -49q-49 -33 -82.5 -86.5t-36.5 -101.5q1 0 9 1t11 1q35 0 58.5 -24.5t23.5 -59.5q0 -36 -25 -61t-61 -25q-43 0 -72.5 35t-29.5 96z" />
<glyph unicode="&#x2019;" d="M117 1028q49 35 83.5 89.5t37.5 101.5l-9 -3q-9 -2 -12 -2q-36 0 -59 25t-23 61t25 61t61 25q42 0 71.5 -35.5t29.5 -95.5q0 -82 -41.5 -156.5t-104.5 -117.5z" />
<glyph unicode="&#x201a;" d="M117 -201q49 34 83.5 87.5t37.5 101.5l-9 -1q-9 -1 -12 -1q-36 0 -59 24t-23 60t25 61t61 25q42 0 71.5 -35t29.5 -94q0 -83 -41.5 -158.5t-104.5 -118.5z" />
<glyph unicode="&#x201c;" horiz-adv-x="733" d="M125 1112q0 81 41.5 155.5t103.5 118.5l60 -49q-49 -33 -82.5 -86.5t-36.5 -101.5q12 2 20 2q35 0 57.5 -24t22.5 -60t-24 -61t-62 -25q-42 0 -71 35t-29 96zM412 1112q0 81 41.5 155.5t103.5 118.5l59 -49q-49 -33 -82 -86.5t-36 -101.5l8 1q8 1 12 1q35 0 58.5 -24.5 t23.5 -59.5q0 -36 -25 -61t-61 -25q-43 0 -72.5 35t-29.5 96z" />
<glyph unicode="&#x201d;" horiz-adv-x="733" d="M117 1028q49 35 83.5 89.5t37.5 101.5l-9 -3q-9 -2 -12 -2q-36 0 -59 25t-23 61t25 61t61 25q42 0 71.5 -35.5t29.5 -95.5q0 -82 -41.5 -156.5t-104.5 -117.5zM403 1028q49 35 83.5 89.5t37.5 101.5l-8 -3q-8 -2 -12 -2q-35 0 -58.5 25t-23.5 61t25 61t61 25 q43 0 71.5 -35t28.5 -96q0 -82 -41 -156.5t-102 -117.5z" />
<glyph unicode="&#x201e;" horiz-adv-x="733" d="M117 -201q49 34 83.5 87.5t37.5 101.5l-9 -1q-9 -1 -12 -1q-36 0 -59 24t-23 60t25 61t61 25q42 0 71.5 -35t29.5 -94q0 -83 -41.5 -158.5t-104.5 -118.5zM403 -201q49 34 83.5 87.5t37.5 101.5l-8 -1q-8 -1 -12 -1q-35 0 -58.5 24.5t-23.5 59.5q0 36 25 61t61 25 q43 0 71.5 -34.5t28.5 -94.5q0 -83 -41 -158.5t-102 -118.5z" />
<glyph unicode="&#x2026;" horiz-adv-x="1339" d="M135 70q0 35 25.5 60.5t62.5 25.5t62.5 -25.5t25.5 -60.5q0 -37 -25.5 -62.5t-62.5 -25.5t-62.5 25.5t-25.5 62.5zM582 70q0 35 25.5 60.5t62.5 25.5t62.5 -25.5t25.5 -60.5q0 -37 -25.5 -62.5t-62.5 -25.5t-62.5 25.5t-25.5 62.5zM1028 70q0 35 26.5 60.5t61.5 25.5 q37 0 63.5 -25.5t26.5 -60.5q0 -37 -26.5 -62.5t-63.5 -25.5q-36 0 -62 26t-26 62z" />
<glyph unicode="&#x202f;" horiz-adv-x="355" />
<glyph unicode="&#x2039;" horiz-adv-x="483" d="M61 498l256 362h105l-256 -362l256 -369h-105z" />
<glyph unicode="&#x203a;" horiz-adv-x="483" d="M61 129l256 369l-256 362h105l256 -362l-256 -369h-105z" />
<glyph unicode="&#x205f;" horiz-adv-x="444" />
<glyph unicode="&#x20ac;" horiz-adv-x="1099" d="M53 496v84h92q-4 70 -4 102q0 36 4 106h-92v84h103q41 235 171.5 376t323.5 141q236 0 377 -240l-96 -49q-99 184 -281 184q-142 0 -241.5 -112t-133.5 -300h465v-84h-477q-4 -70 -4 -106q0 -69 4 -102h477v-84h-467q34 -189 134.5 -302.5t242.5 -113.5q94 0 166 55.5 t117 149.5l98 -49q-138 -261 -381 -261q-194 0 -325 142t-170 379h-103z" />
<glyph unicode="&#x2122;" horiz-adv-x="847" d="M35 1313v53h270v-53h-106v-398h-58v398h-106zM379 915v451h88l111 -324l110 324h88v-451h-57v373l-133 -373h-17l-133 373v-373h-57z" />
<glyph unicode="&#x25fc;" horiz-adv-x="993" d="M0 0v993h993v-993h-993z" />
</font>
</defs>
</svg>
